<svg xmlns="http://www.w3.org/2000/svg" viewBox="0 0 186.56 115.76"><defs><style>.cls-1,.cls-2,.cls-3,.cls-5,.cls-6,.cls-7{fill:none;}.cls-1,.cls-2,.cls-3,.cls-5,.cls-6,.cls-7,.cls-8{stroke:#58595b;}.cls-1,.cls-2,.cls-5,.cls-6,.cls-7,.cls-8{stroke-miterlimit:10;}.cls-2,.cls-3,.cls-6{stroke-linecap:round;}.cls-3{stroke-linejoin:round;}.cls-4,.cls-8{fill:#fff;}.cls-5{stroke-width:2px;}.cls-6,.cls-7{stroke-width:0.5px;}</style></defs><title>BCBLogo3</title><g id="Layer_1" data-name="Layer 1"><path class="cls-1" d="M80,67.14c-4.24-6.72-4.24-11.78-1.13-18.77"/><line class="cls-2" x1="78.7" y1="48.69" x2="85.09" y2="33.01"/><line class="cls-2" x1="85.09" y1="32.63" x2="76.44" y2="16.87"/><path class="cls-2" d="M76.44,16.74a.9.9,0,0,1,.84-.95"/><path class="cls-1" d="M76.44,16.87c0,.07,0,.13.07.13"/><path class="cls-1" d="M85,32.43a.59.59,0,0,1-.09.84"/><path class="cls-3" d="M111.47,67.14c4.24-6.72,4.24-11.78,1.13-18.77"/><line class="cls-2" x1="112.73" y1="48.69" x2="106.35" y2="33.01"/><line class="cls-2" x1="106.34" y1="32.63" x2="115.03" y2="16.81"/><path class="cls-1" d="M106.46,32.43a.58.58,0,0,0,.08.84"/><line class="cls-2" x1="77.44" y1="15.79" x2="114.48" y2="15.79"/><line class="cls-3" x1="79.93" y1="67.1" x2="111.48" y2="67.17"/><path class="cls-2" d="M114.41,15.79c.38,0,.66.48.62,1"/><path class="cls-4" d="M105.93,43.42H85.48c-2.41,0-4.7-2.85-3.83-5.25,0,0,0,0,0,0l0-5.53a.08.08,0,0,0,0-.05c-1.14-2.9,1.47-4.44,3.88-4.44h20.45c2.42,0,4.76,2.23,3.75,4.48a.43.43,0,0,0,0,0l.14,5.65a.09.09,0,0,0,0,.05C110.69,40,108.35,43.42,105.93,43.42Z"/><path class="cls-1" d="M105.93,43.42H85.48c-2.41,0-4.7-2.85-3.83-5.25,0,0,0,0,0,0l0-5.53a.08.08,0,0,0,0-.05c-1.14-2.9,1.47-4.44,3.88-4.44h20.45c2.42,0,4.76,2.23,3.75,4.48a.43.43,0,0,0,0,0l.14,5.65a.09.09,0,0,0,0,.05C110.69,40,108.35,43.42,105.93,43.42Z"/><path class="cls-1" d="M105.93,43.42H85.48c-2.41,0-4.7-2.85-3.83-5.25,0,0,0,0,0,0l0-5.53a.08.08,0,0,0,0-.05c-1.14-2.9,1.47-4.44,3.88-4.44h20.45c2.42,0,4.76,2.23,3.75,4.48a.43.43,0,0,0,0,0l.14,5.65a.09.09,0,0,0,0,.05C110.69,40,108.35,43.42,105.93,43.42Z"/><line class="cls-5" x1="79.96" y1="35.76" x2="111.47" y2="35.76"/><line class="cls-5" x1="100.63" y1="35.76" x2="102.32" y2="50.46"/><line class="cls-5" x1="101.47" y1="35.76" x2="98.45" y2="50.11"/></g><g id="Layer_2" data-name="Layer 2"><path class="cls-2" d="M123.23,71.55c5.43-3.44,13.23-5.6,21.89-5.6,16.42,0,29.73,7.76,29.73,17.32S160.47,98.59,144.06,98c-16.66-.55-28.67-5.2-28.67-14.77a10.66,10.66,0,0,1,.08-1.26"/><line class="cls-6" x1="120.52" y1="80.94" x2="123.36" y2="97.21"/><ellipse class="cls-7" cx="116.87" cy="70.82" rx="0.99" ry="2.77" transform="translate(-16.35 40.38) rotate(-18.35)"/><path class="cls-5" d="M132.5,67.69c0,8.17,1.56,14.77,3.5,14.77"/><path class="cls-5" d="M144.75,66c0,9.09,2.27,16.45,5.07,16.45"/><path class="cls-5" d="M156.71,67.06c0,7.67,1.59,13.88,3.56,13.88"/><ellipse class="cls-7" cx="119.91" cy="73.45" rx="2.78" ry="0.99" transform="translate(28.73 180.5) rotate(-81.07)"/><ellipse class="cls-7" cx="116.3" cy="75.68" rx="1" ry="2.75" transform="translate(-19.82 102.58) rotate(-44.23)"/><ellipse class="cls-7" cx="117.23" cy="79.82" rx="1.02" ry="2.74" transform="translate(-14.37 132.71) rotate(-56.15)"/><ellipse class="cls-7" cx="121.94" cy="77.28" rx="2.76" ry="0.99" transform="translate(-5.34 145.42) rotate(-60.53)"/></g><g id="Layer_3" data-name="Layer 3"><ellipse class="cls-8" cx="40.26" cy="67.8" rx="30.3" ry="29.49"/><line class="cls-7" x1="14.17" y1="74.59" x2="66.21" y2="61.02"/><line class="cls-7" x1="16.96" y1="80.91" x2="63.61" y2="54.69"/><line class="cls-7" x1="21.24" y1="86.42" x2="59.34" y2="49.34"/><line class="cls-7" x1="26.9" y1="90.43" x2="53.84" y2="45.02"/><line class="cls-7" x1="33.4" y1="93.14" x2="47.34" y2="42.5"/><line class="cls-7" x1="40.29" y1="94.04" x2="40.29" y2="41.6"/><line class="cls-7" x1="47.28" y1="93.21" x2="33.33" y2="42.57"/><line class="cls-7" x1="53.77" y1="90.48" x2="26.84" y2="45.07"/><line class="cls-7" x1="59.3" y1="86.36" x2="21.2" y2="49.29"/><line class="cls-7" x1="63.7" y1="81.04" x2="17.04" y2="54.83"/><line class="cls-7" x1="67.29" y1="67.83" x2="13.42" y2="67.83"/><line class="cls-7" x1="66.36" y1="74.6" x2="14.32" y2="61.03"/><ellipse class="cls-5" cx="40.24" cy="67.78" rx="26.94" ry="26.22"/><ellipse class="cls-8" cx="40.28" cy="67.94" rx="2.36" ry="2.29"/></g></svg>