<?xml version="1.0" encoding="utf-8"?>
<!-- Generator: Adobe Illustrator 24.0.3, SVG Export Plug-In . SVG Version: 6.00 Build 0)  -->
<svg version="1.1" id="Layer_1" xmlns="http://www.w3.org/2000/svg" xmlns:xlink="http://www.w3.org/1999/xlink" x="0px" y="0px"
	 viewBox="0 0 72 72" style="enable-background:new 0 0 72 72;" xml:space="preserve">
<style type="text/css">
	.st0{fill:#FFFFFF;stroke:#58595B;stroke-miterlimit:10;}
	.st1{fill:none;stroke:#58595B;stroke-width:0.5;stroke-miterlimit:10;}
	.st2{fill:none;stroke:#808285;stroke-width:0.75;stroke-miterlimit:10;}
	.st3{fill:none;stroke:#58595B;stroke-width:2;stroke-miterlimit:10;}
</style>
<circle class="st0" cx="36.03" cy="36.08" r="32.4"/>
<path class="st1" d="M59.54,26.45"/>
<path class="st1" d="M34.07,25.56"/>
<path class="st1" d="M59.05,20.62"/>
<path class="st1" d="M33.71,23.28"/>
<path class="st1" d="M53.35,20.21"/>
<path class="st1" d="M28.63,26.38"/>
<path class="st1" d="M51.44,19.65"/>
<path class="st1" d="M27.82,29.2"/>
<path class="st1" d="M43.79,13.84"/>
<path class="st1" d="M21.73,26.58"/>
<path class="st1" d="M39.81,13.51"/>
<path class="st1" d="M19.74,29.2"/>
<path class="st1" d="M36,8.58"/>
<path class="st1" d="M18.3,26.91"/>
<path class="st2" d="M44.95,27.69"/>
<path class="st2" d="M17.74,30.54"/>
<path class="st1" d="M63.98,34.65"/>
<path class="st1" d="M36.63,33.7"/>
<line class="st1" x1="8.13" y1="43.54" x2="63.77" y2="28.63"/>
<line class="st1" x1="11.11" y1="50.48" x2="60.99" y2="21.68"/>
<line class="st1" x1="15.69" y1="56.53" x2="56.42" y2="15.8"/>
<line class="st1" x1="21.74" y1="60.94" x2="50.54" y2="11.06"/>
<line class="st1" x1="28.69" y1="63.92" x2="43.6" y2="8.28"/>
<line class="st1" x1="36.05" y1="64.9" x2="36.05" y2="7.3"/>
<line class="st1" x1="43.52" y1="64" x2="28.62" y2="8.36"/>
<line class="st1" x1="50.47" y1="61" x2="21.67" y2="11.11"/>
<line class="st1" x1="56.38" y1="56.47" x2="15.65" y2="15.74"/>
<line class="st1" x1="61.08" y1="50.63" x2="11.2" y2="21.83"/>
<line class="st1" x1="64.92" y1="36.11" x2="7.32" y2="36.11"/>
<line class="st1" x1="63.92" y1="43.55" x2="8.29" y2="28.65"/>
<circle class="st3" cx="36.01" cy="36.06" r="28.8"/>
<circle class="st0" cx="36.05" cy="36.23" r="2.52"/>
</svg>
