<svg id="Layer_1" data-name="Layer 1" xmlns="http://www.w3.org/2000/svg" viewBox="0 0 65.51 36.3"><defs><style>.cls-1{fill:#fff;}.cls-1,.cls-2,.cls-3,.cls-4{stroke:#58595b;stroke-miterlimit:10;}.cls-1,.cls-2{stroke-linecap:round;}.cls-2,.cls-3,.cls-4{fill:none;}.cls-2,.cls-3{stroke-width:0.5px;}.cls-4{stroke-width:2px;}</style></defs><title>JesseMlcochCoverLetter</title><path class="cls-1" d="M12.64,23.56c5.81-3.79,14.15-6.16,23.41-6.16,17.56,0,31.79,8.52,31.79,19S52.46,53.26,34.92,52.66C17.1,52.05,4.26,46.94,4.26,36.43a10.66,10.66,0,0,1,.09-1.38" transform="translate(-2.83 -16.9)"/><line class="cls-2" x1="6.92" y1="16.96" x2="9.96" y2="34.85"/><ellipse class="cls-3" cx="5.84" cy="22.76" rx="1.06" ry="3.04" transform="translate(-9.49 -14.04) rotate(-17.76)"/><path class="cls-4" d="M22.55,19.31c0,9,1.68,16.23,3.75,16.23" transform="translate(-2.83 -16.9)"/><path class="cls-4" d="M35.65,17.47c0,10,2.43,18.07,5.43,18.07" transform="translate(-2.83 -16.9)"/><path class="cls-4" d="M48.44,18.62c0,8.43,1.7,15.25,3.8,15.25" transform="translate(-2.83 -16.9)"/><ellipse class="cls-3" cx="9.1" cy="25.64" rx="3.05" ry="1.06" transform="translate(-20.45 13.88) rotate(-81.37)"/><ellipse class="cls-3" cx="5.24" cy="28.09" rx="1.08" ry="2.98" transform="translate(-20.64 -5.69) rotate(-43.22)"/><ellipse class="cls-3" cx="6.23" cy="32.64" rx="1.11" ry="2.95" transform="translate(-26.96 2.22) rotate(-55.18)"/><ellipse class="cls-3" cx="11.27" cy="29.85" rx="3.02" ry="1.07" transform="translate(-23.16 8.54) rotate(-61.38)"/></svg>