<?xml version="1.0" encoding="utf-8"?>
<!-- Generator: Adobe Illustrator 24.0.3, SVG Export Plug-In . SVG Version: 6.00 Build 0)  -->
<svg version="1.1" id="Layer_1" xmlns="http://www.w3.org/2000/svg" xmlns:xlink="http://www.w3.org/1999/xlink" x="0px" y="0px"
	 viewBox="0 0 72 72" style="enable-background:new 0 0 72 72;" xml:space="preserve">
<style type="text/css">
	.st0{fill:none;stroke:#58595B;stroke-linecap:round;stroke-miterlimit:10;}
	.st1{fill:none;stroke:#58595B;stroke-width:0.5;stroke-linecap:round;stroke-miterlimit:10;}
	.st2{fill:none;stroke:#58595B;stroke-width:0.5;stroke-miterlimit:10;}
	.st3{fill:none;stroke:#58595B;stroke-width:2;stroke-miterlimit:10;}
</style>
<path class="st0" d="M12.64,23.56c5.81-3.78,14.15-6.16,23.41-6.16c17.56,0,31.79,8.52,31.79,19.03S52.46,53.26,34.92,52.66
	C17.1,52.05,4.26,46.94,4.26,36.43c0-0.47,0.03-0.93,0.08-1.38"/>
<line class="st1" x1="9.75" y1="33.87" x2="12.79" y2="51.75"/>
<ellipse transform="matrix(0.9524 -0.305 0.305 0.9524 -6.662 2.8661)" class="st2" cx="5.84" cy="22.76" rx="1.06" ry="3.04"/>
<path class="st3" d="M22.55,19.31c0,8.97,1.68,16.23,3.75,16.23"/>
<path class="st3" d="M35.65,17.47c0,9.99,2.43,18.08,5.43,18.08"/>
<path class="st3" d="M48.44,18.62c0,8.42,1.7,15.24,3.8,15.24"/>
<ellipse transform="matrix(0.1501 -0.9887 0.9887 0.1501 -17.6145 30.7848)" class="st2" cx="9.1" cy="25.64" rx="3.05" ry="1.06"/>
<ellipse transform="matrix(0.7287 -0.6848 0.6848 0.7287 -17.8125 11.2068)" class="st2" cx="5.24" cy="28.09" rx="1.08" ry="2.98"/>
<ellipse transform="matrix(0.5709 -0.821 0.821 0.5709 -24.129 19.1195)" class="st2" cx="6.23" cy="32.64" rx="1.11" ry="2.95"/>
<ellipse transform="matrix(0.479 -0.8778 0.8778 0.479 -20.3335 25.4465)" class="st2" cx="11.27" cy="29.85" rx="3.02" ry="1.07"/>
</svg>
