<?xml version="1.0" encoding="utf-8"?>
<!-- Generator: Adobe Illustrator 24.0.3, SVG Export Plug-In . SVG Version: 6.00 Build 0)  -->
<svg version="1.1" id="Layer_1" xmlns="http://www.w3.org/2000/svg" xmlns:xlink="http://www.w3.org/1999/xlink" x="0px" y="0px"
	 viewBox="0 0 72 72" style="enable-background:new 0 0 72 72;" xml:space="preserve">
<style type="text/css">
	.st0{fill:none;stroke:#58595B;stroke-miterlimit:10;}
	.st1{fill:none;stroke:#58595B;stroke-linecap:round;stroke-miterlimit:10;}
	.st2{fill:none;stroke:#58595B;stroke-linecap:round;stroke-linejoin:round;stroke-miterlimit:10;}
	.st3{fill:#FFFFFF;}
	.st4{fill:none;stroke:#58595B;stroke-width:2;stroke-miterlimit:10;}
</style>
<path class="st0" d="M19.14,64.47c-4.53-7.38-4.53-12.94-1.21-20.62"/>
<line class="st0" x1="22.36" y1="37.92" x2="22.36" y2="37.92"/>
<line class="st1" x1="17.79" y1="44.2" x2="24.61" y2="26.98"/>
<line class="st1" x1="24.62" y1="26.56" x2="15.37" y2="9.25"/>
<path class="st1" d="M15.37,9.1c0-0.58,0.4-1.05,0.9-1.05"/>
<path class="st0" d="M15.37,9.25c0,0.08,0.03,0.14,0.07,0.14"/>
<path class="st0" d="M24.5,26.34c0.22,0.32,0.18,0.74-0.09,0.92"/>
<path class="st2" d="M52.82,64.47c4.53-7.38,4.53-12.94,1.21-20.62"/>
<line class="st0" x1="49.65" y1="38.29" x2="49.65" y2="38.29"/>
<line class="st1" x1="54.17" y1="44.2" x2="47.34" y2="26.98"/>
<line class="st1" x1="47.34" y1="26.56" x2="56.63" y2="9.18"/>
<path class="st0" d="M47.46,26.34c-0.22,0.32-0.18,0.74,0.09,0.92"/>
<path class="st0" d="M55.5,8.18"/>
<path class="st0" d="M56.57,9.37"/>
<line class="st1" x1="16.44" y1="8.06" x2="56.05" y2="8.06"/>
<line class="st2" x1="19.1" y1="64.43" x2="52.84" y2="64.5"/>
<path class="st1" d="M55.96,8.06c0.41,0.03,0.71,0.53,0.66,1.12"/>
<g>
	<path class="st3" d="M46.9,38.41H25.04c-2.58,0-5.03-3.13-4.1-5.76c0.01-0.02,0.01-0.03,0.01-0.05l-0.04-6.07
		c0-0.02-0.01-0.04-0.01-0.06c-1.22-3.18,1.57-4.88,4.15-4.88H46.9c2.58,0,5.08,2.46,4.01,4.92c-0.01,0.02-0.01,0.03-0.01,0.05
		l0.14,6.21c0,0.02,0,0.04,0.01,0.05C51.98,34.63,49.48,38.41,46.9,38.41z"/>
	<path class="st0" d="M46.9,38.41H25.04c-2.58,0-5.03-3.13-4.1-5.76c0.01-0.02,0.01-0.03,0.01-0.05l-0.04-6.07
		c0-0.02-0.01-0.04-0.01-0.06c-1.22-3.18,1.57-4.88,4.15-4.88H46.9c2.58,0,5.08,2.46,4.01,4.92c-0.01,0.02-0.01,0.03-0.01,0.05
		l0.14,6.21c0,0.02,0,0.04,0.01,0.05C51.98,34.63,49.48,38.41,46.9,38.41z"/>
	<path class="st0" d="M46.9,38.41H25.04c-2.58,0-5.03-3.13-4.1-5.76c0.01-0.02,0.01-0.03,0.01-0.05l-0.04-6.07
		c0-0.02-0.01-0.04-0.01-0.06c-1.22-3.18,1.57-4.88,4.15-4.88H46.9c2.58,0,5.08,2.46,4.01,4.92c-0.01,0.02-0.01,0.03-0.01,0.05
		l0.14,6.21c0,0.02,0,0.04,0.01,0.05C51.98,34.63,49.48,38.41,46.9,38.41z"/>
</g>
<line class="st4" x1="19.14" y1="30" x2="52.82" y2="30"/>
<line class="st4" x1="41.23" y1="30" x2="43.04" y2="46.15"/>
<line class="st4" x1="42.13" y1="30" x2="38.91" y2="45.76"/>
</svg>
