<?xml version="1.0" encoding="utf-8"?>
<!-- Generator: Adobe Illustrator 24.0.3, SVG Export Plug-In . SVG Version: 6.00 Build 0)  -->
<svg version="1.1" xmlns="http://www.w3.org/2000/svg" xmlns:xlink="http://www.w3.org/1999/xlink" x="0px" y="0px"
	 viewBox="0 0 186.56 152.06" style="enable-background:new 0 0 186.56 152.06;" xml:space="preserve">
<style type="text/css">
	.st0{fill:none;stroke:#58595B;stroke-miterlimit:10;}
	.st1{fill:none;stroke:#58595B;stroke-linecap:round;stroke-miterlimit:10;}
	.st2{fill:none;stroke:#58595B;stroke-linecap:round;stroke-linejoin:round;stroke-miterlimit:10;}
	.st3{fill:#FFFFFF;}
	.st4{fill:none;stroke:#58595B;stroke-width:2;stroke-miterlimit:10;}
	.st5{fill:none;stroke:#58595B;stroke-width:0.5;stroke-linecap:round;stroke-miterlimit:10;}
	.st6{fill:none;stroke:#58595B;stroke-width:0.5;stroke-miterlimit:10;}
	.st7{fill:#FFFFFF;stroke:#58595B;stroke-miterlimit:10;}
	.st8{fill:none;stroke:#808285;stroke-width:0.75;stroke-miterlimit:10;}
	.st9{fill:#414042;}
	.st10{font-family:'AmericanTypewriter';}
	.st11{font-size:16px;}
</style>
<g id="Layer_1">
	<path class="st0" d="M79.96,67.14c-4.24-6.72-4.24-11.78-1.13-18.77"/>
	<line class="st0" x1="82.98" y1="42.97" x2="82.98" y2="42.97"/>
	<line class="st1" x1="78.7" y1="48.69" x2="85.09" y2="33.01"/>
	<line class="st1" x1="85.09" y1="32.63" x2="76.44" y2="16.87"/>
	<path class="st1" d="M76.44,16.74c0-0.53,0.38-0.95,0.85-0.95"/>
	<path class="st0" d="M76.44,16.87c0,0.07,0.03,0.13,0.07,0.13"/>
	<path class="st0" d="M84.98,32.43c0.21,0.29,0.17,0.67-0.08,0.84"/>
	<path class="st2" d="M111.47,67.14c4.24-6.72,4.24-11.78,1.13-18.77"/>
	<line class="st0" x1="108.5" y1="43.31" x2="108.5" y2="43.31"/>
	<line class="st1" x1="112.73" y1="48.69" x2="106.35" y2="33.01"/>
	<line class="st1" x1="106.34" y1="32.63" x2="115.03" y2="16.81"/>
	<path class="st0" d="M106.46,32.43c-0.21,0.29-0.17,0.67,0.08,0.84"/>
	<path class="st0" d="M113.98,15.9"/>
	<path class="st0" d="M114.98,16.99"/>
	<line class="st1" x1="77.44" y1="15.79" x2="114.48" y2="15.79"/>
	<line class="st2" x1="79.93" y1="67.1" x2="111.48" y2="67.17"/>
	<path class="st1" d="M114.41,15.79c0.39,0.03,0.66,0.49,0.62,1.02"/>
	<g>
		<path class="st3" d="M105.93,43.42H85.48c-2.42,0-4.7-2.85-3.83-5.25c0.01-0.02,0.01-0.03,0.01-0.05l-0.04-5.52
			c0-0.02-0.01-0.04-0.01-0.06c-1.14-2.89,1.46-4.44,3.88-4.44h20.45c2.42,0,4.75,2.23,3.75,4.48c-0.01,0.01-0.01,0.03-0.01,0.05
			l0.13,5.65c0,0.02,0,0.03,0.01,0.05C110.69,39.97,108.35,43.42,105.93,43.42z"/>
		<path class="st0" d="M105.93,43.42H85.48c-2.42,0-4.7-2.85-3.83-5.25c0.01-0.02,0.01-0.03,0.01-0.05l-0.04-5.52
			c0-0.02-0.01-0.04-0.01-0.06c-1.14-2.89,1.46-4.44,3.88-4.44h20.45c2.42,0,4.75,2.23,3.75,4.48c-0.01,0.01-0.01,0.03-0.01,0.05
			l0.13,5.65c0,0.02,0,0.03,0.01,0.05C110.69,39.97,108.35,43.42,105.93,43.42z"/>
		<path class="st0" d="M105.93,43.42H85.48c-2.42,0-4.7-2.85-3.83-5.25c0.01-0.02,0.01-0.03,0.01-0.05l-0.04-5.52
			c0-0.02-0.01-0.04-0.01-0.06c-1.14-2.89,1.46-4.44,3.88-4.44h20.45c2.42,0,4.75,2.23,3.75,4.48c-0.01,0.01-0.01,0.03-0.01,0.05
			l0.13,5.65c0,0.02,0,0.03,0.01,0.05C110.69,39.97,108.35,43.42,105.93,43.42z"/>
	</g>
	<line class="st4" x1="79.96" y1="35.76" x2="111.47" y2="35.76"/>
	<line class="st4" x1="100.63" y1="35.76" x2="102.32" y2="50.46"/>
	<line class="st4" x1="101.47" y1="35.76" x2="98.45" y2="50.11"/>
</g>
<g id="Layer_2">
	<path class="st1" d="M123.23,71.55c5.43-3.44,13.23-5.6,21.89-5.6c16.42,0,29.73,7.76,29.73,17.32s-14.38,15.32-30.79,14.77
		c-16.66-0.56-28.67-5.2-28.67-14.77c0-0.42,0.03-0.84,0.08-1.26"/>
	<line class="st5" x1="120.52" y1="80.94" x2="123.36" y2="97.21"/>
	
		<ellipse transform="matrix(0.9492 -0.3148 0.3148 0.9492 -16.3522 40.3848)" class="st6" cx="116.87" cy="70.82" rx="0.99" ry="2.77"/>
	<path class="st4" d="M132.5,67.69c0,8.17,1.57,14.78,3.5,14.78"/>
	<path class="st4" d="M144.75,66.01c0,9.09,2.27,16.45,5.08,16.45"/>
	<path class="st4" d="M156.71,67.06c0,7.67,1.59,13.87,3.56,13.87"/>
	
		<ellipse transform="matrix(0.1553 -0.9879 0.9879 0.1553 28.7335 180.4979)" class="st6" cx="119.91" cy="73.45" rx="2.78" ry="0.99"/>
	
		<ellipse transform="matrix(0.7165 -0.6975 0.6975 0.7165 -19.8205 102.5784)" class="st6" cx="116.3" cy="75.68" rx="1" ry="2.75"/>
	
		<ellipse transform="matrix(0.5571 -0.8305 0.8305 0.5571 -14.3689 132.7089)" class="st6" cx="117.23" cy="79.82" rx="1.02" ry="2.74"/>
	
		<ellipse transform="matrix(0.492 -0.8706 0.8706 0.492 -5.3351 145.4241)" class="st6" cx="121.94" cy="77.28" rx="2.76" ry="0.99"/>
</g>
<g id="Layer_3">
	<ellipse class="st7" cx="40.26" cy="67.8" rx="30.3" ry="29.49"/>
	<path class="st6" d="M62.25,59.03"/>
	<path class="st6" d="M38.44,58.22"/>
	<path class="st6" d="M61.79,53.73"/>
	<path class="st6" d="M38.1,56.15"/>
	<path class="st6" d="M56.46,53.36"/>
	<path class="st6" d="M33.34,58.97"/>
	<path class="st6" d="M54.68,52.85"/>
	<path class="st6" d="M32.59,61.54"/>
	<path class="st6" d="M47.53,47.56"/>
	<path class="st6" d="M26.89,59.16"/>
	<path class="st6" d="M43.8,47.26"/>
	<path class="st6" d="M25.03,61.54"/>
	<path class="st6" d="M40.24,42.77"/>
	<path class="st6" d="M23.68,59.45"/>
	<path class="st8" d="M48.61,60.16"/>
	<path class="st8" d="M23.16,62.76"/>
	<path class="st6" d="M66.41,66.5"/>
	<path class="st6" d="M40.83,65.63"/>
	<line class="st6" x1="14.17" y1="74.59" x2="66.21" y2="61.02"/>
	<line class="st6" x1="16.96" y1="80.91" x2="63.61" y2="54.69"/>
	<line class="st6" x1="21.24" y1="86.42" x2="59.34" y2="49.34"/>
	<line class="st6" x1="26.9" y1="90.43" x2="53.84" y2="45.02"/>
	<line class="st6" x1="33.4" y1="93.14" x2="47.34" y2="42.5"/>
	<line class="st6" x1="40.29" y1="94.04" x2="40.29" y2="41.6"/>
	<line class="st6" x1="47.28" y1="93.21" x2="33.33" y2="42.57"/>
	<line class="st6" x1="53.77" y1="90.48" x2="26.84" y2="45.07"/>
	<line class="st6" x1="59.3" y1="86.36" x2="21.2" y2="49.29"/>
	<line class="st6" x1="63.7" y1="81.04" x2="17.04" y2="54.83"/>
	<line class="st6" x1="67.29" y1="67.83" x2="13.42" y2="67.83"/>
	<line class="st6" x1="66.36" y1="74.6" x2="14.32" y2="61.03"/>
	<ellipse class="st4" cx="40.24" cy="67.78" rx="26.94" ry="26.22"/>
	<ellipse class="st7" cx="40.28" cy="67.94" rx="2.36" ry="2.29"/>
	<text transform="matrix(1 0 0 1 10.0086 128.4105)" class="st9 st10 st11">BIKE  COFFEE  BAKE</text>
</g>
</svg>
