<svg id="Layer_1" data-name="Layer 1" xmlns="http://www.w3.org/2000/svg" viewBox="0 0 65.8 65.8"><defs><style>.cls-1{fill:#fff;}.cls-1,.cls-2,.cls-4{stroke:#58595b;}.cls-1,.cls-2,.cls-3,.cls-4{stroke-miterlimit:10;}.cls-2,.cls-3,.cls-4{fill:none;}.cls-2{stroke-width:0.5px;}.cls-3{stroke:#808285;stroke-width:0.75px;}.cls-4{stroke-width:2px;}</style></defs><title>BikeWheelGraphic</title><circle class="cls-1" cx="32.9" cy="32.9" r="32.4"/><path class="cls-2" d="M59.54,26.45" transform="translate(-3.13 -3.18)"/><path class="cls-2" d="M34.07,25.56" transform="translate(-3.13 -3.18)"/><path class="cls-2" d="M59.05,20.62" transform="translate(-3.13 -3.18)"/><path class="cls-2" d="M33.71,23.28" transform="translate(-3.13 -3.18)"/><path class="cls-2" d="M53.35,20.21" transform="translate(-3.13 -3.18)"/><path class="cls-2" d="M28.63,26.38" transform="translate(-3.13 -3.18)"/><path class="cls-2" d="M51.44,19.65" transform="translate(-3.13 -3.18)"/><path class="cls-2" d="M27.82,29.2" transform="translate(-3.13 -3.18)"/><path class="cls-2" d="M43.79,13.84" transform="translate(-3.13 -3.18)"/><path class="cls-2" d="M21.73,26.58" transform="translate(-3.13 -3.18)"/><path class="cls-2" d="M39.81,13.51" transform="translate(-3.13 -3.18)"/><path class="cls-2" d="M19.74,29.2" transform="translate(-3.13 -3.18)"/><path class="cls-2" d="M36,8.58" transform="translate(-3.13 -3.18)"/><path class="cls-2" d="M18.3,26.91" transform="translate(-3.13 -3.18)"/><path class="cls-3" d="M45,27.69" transform="translate(-3.13 -3.18)"/><path class="cls-3" d="M17.74,30.54" transform="translate(-3.13 -3.18)"/><path class="cls-2" d="M64,34.65" transform="translate(-3.13 -3.18)"/><path class="cls-2" d="M36.63,33.7" transform="translate(-3.13 -3.18)"/><line class="cls-2" x1="5" y1="40.36" x2="60.64" y2="25.45"/><line class="cls-2" x1="7.98" y1="47.3" x2="57.86" y2="18.5"/><line class="cls-2" x1="12.56" y1="53.35" x2="53.29" y2="12.62"/><line class="cls-2" x1="18.61" y1="57.76" x2="47.41" y2="7.88"/><line class="cls-2" x1="25.56" y1="60.74" x2="40.47" y2="5.1"/><line class="cls-2" x1="32.93" y1="61.72" x2="32.93" y2="4.12"/><line class="cls-2" x1="40.4" y1="60.82" x2="25.49" y2="5.18"/><line class="cls-2" x1="47.34" y1="57.82" x2="18.54" y2="7.93"/><line class="cls-2" x1="53.25" y1="53.29" x2="12.52" y2="12.56"/><line class="cls-2" x1="57.95" y1="47.45" x2="8.07" y2="18.65"/><line class="cls-2" x1="61.79" y1="32.93" x2="4.19" y2="32.93"/><line class="cls-2" x1="60.8" y1="40.37" x2="5.16" y2="25.47"/><circle class="cls-4" cx="32.88" cy="32.88" r="28.8"/><circle class="cls-1" cx="32.92" cy="33.05" r="2.52"/></svg>