<?xml version="1.0" encoding="utf-8"?>
<!-- Generator: Adobe Illustrator 24.0.3, SVG Export Plug-In . SVG Version: 6.00 Build 0)  -->
<svg version="1.1" xmlns="http://www.w3.org/2000/svg" xmlns:xlink="http://www.w3.org/1999/xlink" x="0px" y="0px"
	 viewBox="0 0 135.26 72" style="enable-background:new 0 0 135.26 72;" xml:space="preserve">
<style type="text/css">
	.st0{fill:#FFFFFF;stroke:#58595B;stroke-miterlimit:10;}
	.st1{fill:none;stroke:#58595B;stroke-width:0.5;stroke-miterlimit:10;}
	.st2{fill:none;stroke:#808285;stroke-width:0.75;stroke-miterlimit:10;}
	.st3{fill:none;stroke:#58595B;stroke-width:2;stroke-miterlimit:10;}
	.st4{fill:#FFFFFF;stroke:#BE1E2D;stroke-miterlimit:10;}
	.st5{fill:none;stroke:#BE1E2D;stroke-width:0.5;stroke-miterlimit:10;}
	.st6{fill:none;stroke:#BE1E2D;stroke-width:0.75;stroke-miterlimit:10;}
	.st7{fill:none;stroke:#BE1E2D;stroke-width:2;stroke-miterlimit:10;}
	.st8{fill:#FFFFFF;stroke:#2B3990;stroke-miterlimit:10;}
	.st9{fill:none;stroke:#2B3990;stroke-width:0.5;stroke-miterlimit:10;}
	.st10{fill:none;stroke:#2B3990;stroke-width:0.75;stroke-miterlimit:10;}
	.st11{fill:none;stroke:#2B3990;stroke-width:2;stroke-miterlimit:10;}
</style>
<g id="Layer_1">
	<circle class="st0" cx="34.95" cy="35.81" r="32.4"/>
	<path class="st1" d="M58.46,26.18"/>
	<path class="st1" d="M32.99,25.29"/>
	<path class="st1" d="M57.97,20.35"/>
	<path class="st1" d="M32.63,23.01"/>
	<path class="st1" d="M52.27,19.94"/>
	<path class="st1" d="M27.55,26.11"/>
	<path class="st1" d="M50.36,19.38"/>
	<path class="st1" d="M26.74,28.93"/>
	<path class="st1" d="M42.71,13.57"/>
	<path class="st1" d="M20.65,26.31"/>
	<path class="st1" d="M38.73,13.24"/>
	<path class="st1" d="M18.66,28.93"/>
	<path class="st1" d="M34.92,8.31"/>
	<path class="st1" d="M17.22,26.64"/>
	<path class="st2" d="M43.87,27.41"/>
	<path class="st2" d="M16.66,30.27"/>
	<path class="st1" d="M62.9,34.38"/>
	<path class="st1" d="M35.56,33.43"/>
	<line class="st1" x1="7.05" y1="43.27" x2="62.69" y2="28.36"/>
	<line class="st1" x1="10.03" y1="50.2" x2="59.91" y2="21.4"/>
	<line class="st1" x1="14.61" y1="56.26" x2="55.34" y2="15.53"/>
	<line class="st1" x1="20.66" y1="60.67" x2="49.46" y2="10.79"/>
	<line class="st1" x1="27.61" y1="63.65" x2="42.52" y2="8.01"/>
	<line class="st1" x1="34.98" y1="64.63" x2="34.97" y2="7.03"/>
	<line class="st1" x1="42.45" y1="63.72" x2="27.54" y2="8.09"/>
	<line class="st1" x1="49.39" y1="60.73" x2="20.59" y2="10.84"/>
	<line class="st1" x1="55.3" y1="56.2" x2="14.57" y2="15.47"/>
	<line class="st1" x1="60" y1="50.36" x2="10.12" y2="21.56"/>
	<line class="st1" x1="63.84" y1="35.84" x2="6.24" y2="35.84"/>
	<line class="st1" x1="62.85" y1="43.28" x2="7.21" y2="28.37"/>
	<circle class="st3" cx="34.93" cy="35.78" r="28.8"/>
	<circle class="st0" cx="34.97" cy="35.96" r="2.52"/>
</g>
<g id="Layer_2">
	<circle class="st4" cx="67.27" cy="36.18" r="32.4"/>
	<path class="st5" d="M90.78,26.54"/>
	<path class="st5" d="M65.32,25.65"/>
	<path class="st5" d="M90.29,20.72"/>
	<path class="st5" d="M64.95,23.38"/>
	<path class="st5" d="M84.59,20.31"/>
	<path class="st5" d="M59.87,26.47"/>
	<path class="st5" d="M82.69,19.75"/>
	<path class="st5" d="M59.06,29.29"/>
	<path class="st5" d="M75.04,13.94"/>
	<path class="st5" d="M52.97,26.68"/>
	<path class="st5" d="M71.06,13.61"/>
	<path class="st5" d="M50.98,29.29"/>
	<path class="st5" d="M67.24,8.68"/>
	<path class="st5" d="M49.55,27.01"/>
	<path class="st6" d="M76.19,27.78"/>
	<path class="st6" d="M48.98,30.64"/>
	<path class="st5" d="M95.22,34.75"/>
	<path class="st5" d="M67.88,33.79"/>
	<line class="st5" x1="39.37" y1="43.64" x2="95.01" y2="28.73"/>
	<line class="st5" x1="42.35" y1="50.57" x2="92.24" y2="21.77"/>
	<line class="st5" x1="46.93" y1="56.63" x2="87.66" y2="15.9"/>
	<line class="st5" x1="52.99" y1="61.04" x2="81.79" y2="11.16"/>
	<line class="st5" x1="59.93" y1="64.02" x2="74.84" y2="8.38"/>
	<line class="st5" x1="67.3" y1="65" x2="67.3" y2="7.4"/>
	<line class="st5" x1="74.77" y1="64.09" x2="59.86" y2="8.45"/>
	<line class="st5" x1="81.72" y1="61.09" x2="52.91" y2="11.21"/>
	<line class="st5" x1="87.62" y1="56.57" x2="46.89" y2="15.84"/>
	<line class="st5" x1="92.33" y1="50.72" x2="42.44" y2="21.92"/>
	<line class="st5" x1="96.17" y1="36.21" x2="38.57" y2="36.21"/>
	<line class="st5" x1="95.17" y1="43.65" x2="39.53" y2="28.74"/>
	<circle class="st7" cx="67.25" cy="36.15" r="28.8"/>
	<circle class="st4" cx="67.29" cy="36.32" r="2.52"/>
</g>
<g id="Layer_3">
	<circle class="st8" cx="99.83" cy="36.5" r="32.4"/>
	<path class="st9" d="M123.34,26.87"/>
	<path class="st9" d="M97.87,25.98"/>
	<path class="st9" d="M122.85,21.04"/>
	<path class="st9" d="M97.51,23.7"/>
	<path class="st9" d="M117.15,20.63"/>
	<path class="st9" d="M92.43,26.8"/>
	<path class="st9" d="M115.24,20.07"/>
	<path class="st9" d="M91.62,29.62"/>
	<path class="st9" d="M107.59,14.26"/>
	<path class="st9" d="M85.53,27"/>
	<path class="st9" d="M103.61,13.93"/>
	<path class="st9" d="M83.54,29.62"/>
	<path class="st9" d="M99.8,9"/>
	<path class="st9" d="M82.1,27.33"/>
	<path class="st10" d="M108.75,28.11"/>
	<path class="st10" d="M81.54,30.97"/>
	<path class="st9" d="M127.78,35.07"/>
	<path class="st9" d="M100.44,34.12"/>
	<line class="st9" x1="71.93" y1="43.96" x2="127.57" y2="29.05"/>
	<line class="st9" x1="74.91" y1="50.9" x2="124.79" y2="22.1"/>
	<line class="st9" x1="79.49" y1="56.95" x2="120.22" y2="16.22"/>
	<line class="st9" x1="85.54" y1="61.36" x2="114.34" y2="11.48"/>
	<line class="st9" x1="92.49" y1="64.34" x2="107.4" y2="8.7"/>
	<line class="st9" x1="99.85" y1="65.32" x2="99.85" y2="7.72"/>
	<line class="st9" x1="107.32" y1="64.42" x2="92.42" y2="8.78"/>
	<line class="st9" x1="114.27" y1="61.42" x2="85.47" y2="11.53"/>
	<line class="st9" x1="120.18" y1="56.89" x2="79.45" y2="16.16"/>
	<line class="st9" x1="124.88" y1="51.05" x2="75" y2="22.25"/>
	<line class="st9" x1="128.72" y1="36.53" x2="71.12" y2="36.53"/>
	<line class="st9" x1="127.72" y1="43.97" x2="72.09" y2="29.07"/>
	<circle class="st11" cx="99.81" cy="36.48" r="28.8"/>
	<circle class="st8" cx="99.85" cy="36.65" r="2.52"/>
</g>
</svg>
