<svg id="Layer_1" data-name="Layer 1" xmlns="http://www.w3.org/2000/svg" viewBox="0 0 42.27 57.45"><defs><style>.cls-1,.cls-2,.cls-3,.cls-5{fill:none;stroke:#414042;}.cls-1,.cls-2,.cls-5{stroke-miterlimit:10;}.cls-2,.cls-3{stroke-linecap:round;}.cls-3{stroke-linejoin:round;}.cls-4{fill:#fff;}.cls-5{stroke-width:2px;}</style></defs><title>ChemexIcon-1</title><path class="cls-1" d="M19.14,64.47c-4.54-7.38-4.54-12.94-1.21-20.62" transform="translate(-14.87 -7.56)"/><line class="cls-1" x1="7.5" y1="30.37" x2="7.5" y2="30.37"/><line class="cls-2" x1="2.92" y1="36.65" x2="9.75" y2="19.42"/><line class="cls-2" x1="9.75" y1="19.01" x2="0.5" y2="1.69"/><path class="cls-2" d="M15.37,9.1a1,1,0,0,1,.9-1" transform="translate(-14.87 -7.56)"/><path class="cls-1" d="M15.37,9.25c0,.08,0,.14.07.14" transform="translate(-14.87 -7.56)"/><path class="cls-1" d="M24.5,26.34a.67.67,0,0,1-.09.93" transform="translate(-14.87 -7.56)"/><path class="cls-3" d="M52.82,64.47c4.54-7.38,4.54-12.94,1.21-20.62" transform="translate(-14.87 -7.56)"/><line class="cls-1" x1="34.78" y1="30.74" x2="34.78" y2="30.74"/><line class="cls-2" x1="39.3" y1="36.65" x2="32.48" y2="19.42"/><line class="cls-2" x1="32.47" y1="19.01" x2="41.76" y2="1.62"/><path class="cls-1" d="M47.46,26.34a.67.67,0,0,0,.09.93" transform="translate(-14.87 -7.56)"/><path class="cls-1" d="M55.5,8.18" transform="translate(-14.87 -7.56)"/><path class="cls-1" d="M56.57,9.37" transform="translate(-14.87 -7.56)"/><line class="cls-2" x1="1.57" y1="0.5" x2="41.18" y2="0.5"/><line class="cls-3" x1="4.23" y1="56.88" x2="37.97" y2="56.95"/><path class="cls-2" d="M56,8.06c.42,0,.71.53.67,1.12" transform="translate(-14.87 -7.56)"/><path class="cls-4" d="M46.9,38.41H25c-2.59,0-5-3.13-4.1-5.76a.09.09,0,0,0,0,0l-.05-6.07a.13.13,0,0,0,0-.06c-1.22-3.18,1.57-4.88,4.15-4.88H46.9c2.58,0,5.08,2.46,4,4.92a.13.13,0,0,0,0,.06l.15,6.21a.09.09,0,0,0,0,0C52,34.63,49.48,38.41,46.9,38.41Z" transform="translate(-14.87 -7.56)"/><path class="cls-1" d="M46.9,38.41H25c-2.59,0-5-3.13-4.1-5.76a.09.09,0,0,0,0,0l-.05-6.07a.13.13,0,0,0,0-.06c-1.22-3.18,1.57-4.88,4.15-4.88H46.9c2.58,0,5.08,2.46,4,4.92a.13.13,0,0,0,0,.06l.15,6.21a.09.09,0,0,0,0,0C52,34.63,49.48,38.41,46.9,38.41Z" transform="translate(-14.87 -7.56)"/><path class="cls-1" d="M46.9,38.41H25c-2.59,0-5-3.13-4.1-5.76a.09.09,0,0,0,0,0l-.05-6.07a.13.13,0,0,0,0-.06c-1.22-3.18,1.57-4.88,4.15-4.88H46.9c2.58,0,5.08,2.46,4,4.92a.13.13,0,0,0,0,.06l.15,6.21a.09.09,0,0,0,0,0C52,34.63,49.48,38.41,46.9,38.41Z" transform="translate(-14.87 -7.56)"/><line class="cls-5" x1="4.27" y1="22.45" x2="37.95" y2="22.45"/><line class="cls-5" x1="26.36" y1="22.45" x2="28.17" y2="38.59"/><line class="cls-5" x1="27.27" y1="22.45" x2="24.04" y2="38.2"/></svg>